# xmcd CD database file
#
# Track frame offsets:
#	150
#	14817
#	35012
#	53122
#	71105
#	94662
#	106527
#	123015
#
# Disc length: 1845 seconds
#
# Revision: 0
# Processed by: cddbd v1.5.2PL0 Copyright (c) Steve Scherf et al.
# Submitted via: jetAudio 7
#
DISCID=64073308
DTITLE=The Dramatics - Whatcha See Is Whatcha Get
DYEAR=1900
DGENRE=R&B
TTITLE0=Get Up And Get Down
TTITLE1=Thank You For Your Love
TTITLE2=Hot Pants In The Summertime
TTITLE3=Whatcha See Is Whatcha Get
TTITLE4=In The Rain
TTITLE5=Gimme Some (Good Soul Music)
TTITLE6=Fall In Love, Lady Love
TTITLE7=Mary Don't Cha Wanna
EXTD=
EXTT0=
EXTT1=
EXTT2=
EXTT3=
EXTT4=
EXTT5=
EXTT6=
EXTT7=
PLAYORDER=
